<svg width="40" height="40" viewBox="0 0 40 40" fill="none" xmlns="http://www.w3.org/2000/svg">
<path opacity="0.5" fill-rule="evenodd" clip-rule="evenodd" d="M19.9254 1.23696C30.2086 1.23696 38.5449 9.57336 38.5449 19.8567C38.5449 30.14 30.2086 38.476 19.9254 38.476C9.64204 38.476 1.3058 30.14 1.3058 19.8567C1.3058 9.57336 9.64204 1.23696 19.9254 1.23696ZM19.8648 4.22772C28.5311 4.22772 35.5565 11.2531 35.5565 19.9193C35.5565 28.5856 28.5311 35.6112 19.8648 35.6112C11.1985 35.6112 4.17308 28.5856 4.17308 19.9193C4.17308 11.2531 11.1985 4.22772 19.8648 4.22772Z" fill="white"/>
<g opacity="0.8">
<path fill-rule="evenodd" clip-rule="evenodd" d="M4 20C4 11.163 11.164 4 20 4C28.837 4 36 11.164 36 20C36 28.836 28.837 36 20 36C11.164 36 4 28.837 4 20ZM21.041 13.455H24.062H24.063V10.01H21.042C19.374 10.01 18.021 11.553 18.021 13.455V16.899H15V20.344H18.02V28.954H21.041V20.344H24.062V16.899H21.041V13.455Z" fill="white"/>
</g>
</svg>
