<svg width="40" height="40" viewBox="0 0 40 40" fill="none" xmlns="http://www.w3.org/2000/svg">
<path opacity="0.5" fill-rule="evenodd" clip-rule="evenodd" d="M19.9254 1.23696C30.2086 1.23696 38.5448 9.57336 38.5448 19.8567C38.5448 30.14 30.2086 38.476 19.9254 38.476C9.64208 38.476 1.3058 30.14 1.3058 19.8567C1.3058 9.57336 9.64208 1.23696 19.9254 1.23696ZM19.8648 4.22772C28.531 4.22772 35.5565 11.2531 35.5565 19.9193C35.5565 28.5856 28.531 35.6112 19.8648 35.6112C11.1986 35.6112 4.17316 28.5856 4.17316 19.9193C4.17316 11.2531 11.1986 4.22772 19.8648 4.22772Z" fill="white"/>
<g opacity="0.8">
<path d="M24.916 20.0001C24.916 22.7276 22.705 24.9386 19.9775 24.9386C17.2501 24.9386 15.039 22.7276 15.039 20.0001C15.039 19.6061 15.09 19.2271 15.177 18.8601H14.28V25.6981H25.676V18.8601H24.779C24.865 19.2271 24.916 19.6061 24.916 20.0001Z" fill="white"/>
<path fill-rule="evenodd" clip-rule="evenodd" d="M25.6761 14.302H22.6371V17.341H25.6761V14.302ZM22.6371 20C22.6371 21.466 21.4441 22.659 19.9781 22.659C18.5111 22.659 17.3191 21.466 17.3191 20C17.3191 18.534 18.5121 17.341 19.9781 17.341C21.4441 17.341 22.6371 18.534 22.6371 20Z" fill="white"/>
<path fill-rule="evenodd" clip-rule="evenodd" d="M4 20C4 11.164 11.164 4 20 4C28.837 4 36 11.164 36 20C36 28.837 28.837 36 20 36C11.164 36 4 28.837 4 20ZM25.676 27.977C26.9333 27.9737 27.9517 26.9553 27.955 25.698H27.954V14.302C27.9502 13.0449 26.9321 12.0268 25.675 12.023H14.279C13.0219 12.0268 12.0038 13.0449 12 14.302V25.698C12.0033 26.9553 13.0217 27.9737 14.279 27.977H25.676Z" fill="white"/>
</g>
</svg>
