<svg width="38" height="38" viewBox="0 0 38 38" fill="none" xmlns="http://www.w3.org/2000/svg">
<path opacity="0.5" fill-rule="evenodd" clip-rule="evenodd" d="M18.9255 0.237061C29.2087 0.237061 37.545 8.57346 37.545 18.8568C37.545 29.1401 29.2087 37.4761 18.9255 37.4761C8.64215 37.4761 0.305908 29.1401 0.305908 18.8568C0.305908 8.57346 8.64215 0.237061 18.9255 0.237061ZM18.8649 3.22782C27.5311 3.22782 34.5566 10.2532 34.5566 18.9194C34.5566 27.5857 27.5311 34.6113 18.8649 34.6113C10.1986 34.6113 3.17323 27.5857 3.17323 18.9194C3.17323 10.2532 10.1986 3.22782 18.8649 3.22782Z" fill="white"/>
<g opacity="0.8">
<path fill-rule="evenodd" clip-rule="evenodd" d="M3 19C3 10.164 10.164 3 19 3C27.837 3 35 10.164 35 19C35 27.837 27.837 35 19 35C10.164 35 3 27.837 3 19ZM15.952 26.511C23.481 26.641 26.693 22.325 26.944 15.809C27.557 15.58 28.467 14.818 28.651 13.855C28.651 13.855 27.975 14.495 27.228 14.33C27.594 14.084 28.159 13.454 28.163 12.621C27.7532 12.7423 27.3507 12.8706 26.948 12.999C26.6235 13.1025 26.2988 13.2061 25.97 13.306C25.324 12.428 23.909 11.689 22.069 12.168C20.141 12.794 19.128 14.279 18.901 16.493C15.172 16.332 13.081 14.64 11.097 12.85C9.922 14.387 11.303 17.398 12.071 17.631C11.775 17.692 10.922 17.491 10.611 17.174C10.5386 19.1194 11.7498 19.866 12.9583 20.611C13.0692 20.6793 13.1801 20.7477 13.29 20.817C12.7027 20.9101 12.4479 20.8359 12.1426 20.7471C12.0938 20.7329 12.0438 20.7183 11.991 20.704C12.2832 22.8302 13.8028 23.199 14.872 23.4584C15.0032 23.4903 15.1275 23.5204 15.242 23.552C14.369 24.282 12.601 24.878 10.122 24.688C10.923 26.068 15.019 26.511 15.466 26.511H15.952Z" fill="white"/>
</g>
</svg>
