<svg width="40" height="40" viewBox="0 0 40 40" fill="none" xmlns="http://www.w3.org/2000/svg">
<path opacity="0.5" fill-rule="evenodd" clip-rule="evenodd" d="M19.9254 1.23696C30.2087 1.23696 38.5449 9.57336 38.5449 19.8567C38.5449 30.14 30.2087 38.476 19.9254 38.476C9.64204 38.476 1.3058 30.14 1.3058 19.8567C1.3058 9.57336 9.64204 1.23696 19.9254 1.23696ZM19.8648 4.22772C28.531 4.22772 35.5564 11.2531 35.5564 19.9193C35.5564 28.5856 28.531 35.6112 19.8648 35.6112C11.1984 35.6112 4.173 28.5856 4.173 19.9193C4.173 11.2531 11.1984 4.22772 19.8648 4.22772Z" fill="white"/>
<g opacity="0.8">
<path fill-rule="evenodd" clip-rule="evenodd" d="M21.5881 18.3071C21.3561 18.4131 21.0391 18.4761 20.6371 18.4951C20.2351 18.5141 19.7491 18.5231 19.1781 18.5231H18.6131V15.5581H18.9521C19.5028 15.5568 20.0535 15.5614 20.6041 15.5721C20.9961 15.5821 21.3241 15.6371 21.5881 15.7371C21.8831 15.8491 22.0891 16.0221 22.2051 16.2541C22.3211 16.4861 22.3791 16.7191 22.3791 16.9511C22.3791 17.2521 22.3301 17.5191 22.2291 17.7481C22.1281 17.9771 21.9141 18.1621 21.5881 18.3071ZM20.9521 20.9521C21.4461 20.9591 21.8361 21.0031 22.1181 21.0841C22.5311 21.2041 22.8251 21.3861 22.9951 21.6271C23.1681 21.8691 23.2561 22.2111 23.2561 22.6571C23.2561 22.9951 23.1831 23.2961 23.0421 23.5571C22.9011 23.8181 22.6451 24.0251 22.2681 24.1821C21.8838 24.3418 21.4721 24.425 21.0561 24.4271C20.6161 24.4331 19.8901 24.4361 18.8761 24.4361H18.6121V20.9431H19.4021C19.9187 20.9429 20.4354 20.9459 20.9521 20.9521Z" fill="white"/>
<path fill-rule="evenodd" clip-rule="evenodd" d="M4 20C4 11.164 11.164 4 20 4C28.837 4 36 11.164 36 20C36 28.837 28.837 36 20 36C11.164 36 4 28.837 4 20ZM25.478 25.858C25.952 25.5104 26.3371 25.0557 26.602 24.531C26.875 23.997 27.013 23.392 27.013 22.714C27.013 21.778 26.743 21.024 26.206 20.453C25.669 19.882 24.944 19.505 24.027 19.323V19.248C24.681 18.96 25.186 18.558 25.544 18.04C25.901 17.523 26.08 16.923 26.08 16.245C26.08 15.662 25.948 15.142 25.688 14.687C25.428 14.232 25.032 13.87 24.499 13.6C24.0089 13.3507 23.4818 13.1819 22.938 13.1C22.415 13.025 21.588 12.987 20.458 12.987H15.015V27.008H21.136C22.154 27.008 22.993 26.92 23.655 26.744C24.317 26.568 24.926 26.273 25.478 25.858Z" fill="white"/>
</g>
</svg>
